<svg width="64" height="73" viewBox="0 0 64 73" fill="none" xmlns="http://www.w3.org/2000/svg">
<rect x="1.5" y="10.5" width="61" height="61" fill="white" stroke="black" stroke-width="3"/>
<circle cx="32" cy="41" r="32" fill="white"/>
<path d="M33.25 60.75C33.1667 60.3333 33.0833 59.6667 33 58.75C32.9167 57.8333 32.8125 56.8125 32.6875 55.6875C32.5625 54.5625 32.4375 53.375 32.3125 52.125C32.1875 50.8333 32.0625 49.625 31.9375 48.5C31.8125 47.3333 31.6875 46.3125 31.5625 45.4375C31.4792 44.5208 31.4167 43.8333 31.375 43.375C31.2917 42.9583 31.25 42.4375 31.25 41.8125C31.2917 41.1875 31.25 40.5417 31.125 39.875C31.0417 39.2083 30.875 38.5833 30.625 38C30.4167 37.4167 30.0833 37 29.625 36.75C28.125 37.5833 26.625 38.2083 25.125 38.625C23.625 39.0417 22.0417 39.25 20.375 39.25C17.9167 39.25 15.4583 37.75 13 34.75C12.8333 34.75 12.7083 34.875 12.625 35.125C12.5833 35.375 12.5417 35.6667 12.5 36C12.4583 36.3333 12.4375 36.6875 12.4375 37.0625C12.4792 37.4375 12.5 37.75 12.5 38L12.4375 58.875C12.4375 59.125 12.3542 59.3542 12.1875 59.5625C12.0625 59.7292 11.8958 59.8542 11.6875 59.9375C11.4792 60.0208 11.25 60.1042 11 60.1875C10.7917 60.2292 10.5833 60.25 10.375 60.25C9.70833 60.25 9.25 59.9792 9 59.4375C8.79167 58.8542 8.64583 58.2917 8.5625 57.75V48.75C8.5625 46 8.66667 43.2917 8.875 40.625C9.125 37.9583 9.25 35.25 9.25 32.5C9.25 31.6667 9.08333 30.9167 8.75 30.25C8.41667 29.5833 8.0625 28.9375 7.6875 28.3125C7.3125 27.6458 6.95833 27 6.625 26.375C6.33333 25.7083 6.1875 24.9792 6.1875 24.1875C6.1875 23.3125 6.60417 22.875 7.4375 22.875C8.47917 22.875 9.35417 23.1875 10.0625 23.8125C10.7708 24.4375 11.3958 25.1875 11.9375 26.0625C12.4792 26.9375 13 27.9167 13.5 29C14 30.0833 14.5833 31.0625 15.25 31.9375C15.9583 32.8125 16.75 33.5625 17.625 34.1875C18.5417 34.8125 19.6667 35.125 21 35.125C22.6667 35.2083 24.0417 34.9583 25.125 34.375C26.25 33.75 27.1458 32.9792 27.8125 32.0625C28.5208 31.1042 29.0833 30.0833 29.5 29C29.9583 27.875 30.3542 26.8542 30.6875 25.9375C31.0208 24.9792 31.375 24.2083 31.75 23.625C32.1667 23.0417 32.6667 22.8125 33.25 22.9375C33.7083 22.8542 34.0417 22.9583 34.25 23.25C34.5 23.5417 34.6875 23.9167 34.8125 24.375C34.9375 24.7917 35 25.2083 35 25.625C35.0417 26.0417 35.0625 26.3333 35.0625 26.5C35.0625 28.0833 34.9375 29.6042 34.6875 31.0625C34.4792 32.4792 34.375 34 34.375 35.625C34.375 37.75 34.5208 39.8542 34.8125 41.9375C35.1042 44.0208 35.4375 46.125 35.8125 48.25C36.2292 50.3333 36.5833 52.4167 36.875 54.5C37.2083 56.5833 37.375 58.6667 37.375 60.75C37.375 61.0833 37.3333 61.3542 37.25 61.5625C37.1667 61.7708 37.0417 61.9167 36.875 62C36.7083 62.0833 36.5208 62.125 36.3125 62.125C36.1042 62.125 35.875 62.125 35.625 62.125C35.0833 62.125 34.5833 62.0625 34.125 61.9375C33.7083 61.8125 33.4167 61.4167 33.25 60.75Z" fill="black"/>
<path d="M38.8125 54.6875C38.7292 54.3958 38.7396 54.1354 38.8438 53.9062C38.9271 53.6771 39.0521 53.4896 39.2188 53.3438C39.3854 53.1979 39.5729 53.1042 39.7812 53.0625C39.9688 53.0208 40.1354 53.0417 40.2812 53.125C40.4062 53.2292 40.4896 53.4062 40.5312 53.6562C40.5521 53.9062 40.4792 54.25 40.3125 54.6875C40.3125 55.1458 40.5104 55.5938 40.9062 56.0312C41.2812 56.4688 41.7812 56.8646 42.4062 57.2188C43.0104 57.5729 43.6771 57.8958 44.4062 58.1875C45.1354 58.4792 45.8438 58.7292 46.5312 58.9375C47.2188 59.1458 47.8333 59.3021 48.375 59.4062C48.875 59.5104 49.25 59.5625 49.5 59.5625C50.0208 59.5625 50.4583 59.4271 50.8125 59.1562C51.1875 58.8854 51.5 58.5312 51.75 58.0938C52.0208 57.6562 52.2292 57.1562 52.375 56.5938C52.5417 56.0521 52.6667 55.5 52.75 54.9375C52.8333 54.3958 52.8854 53.8646 52.9062 53.3438C52.9271 52.8229 52.9375 52.3854 52.9375 52.0312C52.9375 51.8646 52.9167 51.5521 52.875 51.0938C52.8542 50.6562 52.8125 50.1458 52.75 49.5625C52.6875 48.9792 52.6146 48.375 52.5312 47.75C52.4479 47.125 52.3542 46.5417 52.25 46C52.1458 45.4583 52.0312 45.0208 51.9062 44.6875C51.8021 44.3542 51.6875 44.1875 51.5625 44.1875C51.3542 44.1875 51.1042 44.25 50.8125 44.375C50.5417 44.5 50.25 44.6354 49.9375 44.7812C49.6458 44.9271 49.3438 45.0625 49.0312 45.1875C48.7188 45.3125 48.4167 45.375 48.125 45.375C47.5417 45.375 46.9688 45.25 46.4062 45C45.8438 44.75 45.3542 44.4271 44.9375 44.0312C44.5417 43.6354 44.2188 43.1667 43.9688 42.625C43.7188 42.0833 43.5938 41.5208 43.5938 40.9375C43.5938 40.0208 43.7708 39.0833 44.125 38.125C44.5 37.1667 45 36.2917 45.625 35.5C46.2708 34.7083 47.0208 34.0625 47.875 33.5625C48.75 33.0625 49.6771 32.8125 50.6562 32.8125C51.4062 33.0208 52.0104 33.5 52.4688 34.25C52.9479 34.9792 53.3125 35.8854 53.5625 36.9688C53.8333 38.0521 54.0208 39.2604 54.125 40.5938C54.25 41.9062 54.3333 43.25 54.375 44.625C54.4167 46 54.4479 47.3438 54.4688 48.6562C54.5104 49.9896 54.5938 51.1979 54.7188 52.2812C54.7188 52.7604 54.6875 53.3229 54.625 53.9688C54.5833 54.6354 54.5 55.3125 54.375 56C54.25 56.6875 54.0729 57.3646 53.8438 58.0312C53.6354 58.7188 53.3542 59.3229 53 59.8438C52.6458 60.3854 52.2083 60.8125 51.6875 61.125C51.1875 61.4583 50.6042 61.625 49.9375 61.625C49.3958 61.625 48.7396 61.5625 47.9688 61.4375C47.2188 61.3125 46.4271 61.1146 45.5938 60.8438C44.7812 60.5729 43.9688 60.2396 43.1562 59.8438C42.3438 59.4479 41.6146 58.9896 40.9688 58.4688C40.3229 57.9688 39.8021 57.3958 39.4062 56.75C39.0104 56.125 38.8125 55.4375 38.8125 54.6875ZM45.375 40.4062C45.375 40.7812 45.4271 41.1458 45.5312 41.5C45.6562 41.8333 45.8229 42.1354 46.0312 42.4062C46.2604 42.6771 46.5312 42.8958 46.8438 43.0625C47.1771 43.2083 47.5417 43.2812 47.9375 43.2812C49 43.2812 49.8021 43.0729 50.3438 42.6562C50.9062 42.2396 51.2917 41.7188 51.5 41.0938C51.7083 40.4688 51.8125 39.8021 51.8125 39.0938C51.7917 38.3646 51.7604 37.7083 51.7188 37.125C51.7188 36.8333 51.6979 36.5417 51.6562 36.25C51.6146 35.9583 51.5312 35.6875 51.4062 35.4375C51.2812 35.1875 51.1042 34.9896 50.875 34.8438C50.6667 34.6979 50.3958 34.625 50.0625 34.625C49.375 34.625 48.7396 34.8229 48.1562 35.2188C47.5729 35.5938 47.0729 36.0729 46.6562 36.6562C46.2604 37.2188 45.9479 37.8438 45.7188 38.5312C45.4896 39.1979 45.375 39.8229 45.375 40.4062Z" fill="black"/>
</svg>
