<svg width="288" height="336" viewBox="0 0 288 336" fill="none" xmlns="http://www.w3.org/2000/svg">
<rect y="48" width="288" height="288" rx="70" fill="#B5B5B5"/>
<path d="M141.523 218.508C141.224 217.01 140.924 214.615 140.625 211.32C140.326 208.026 139.951 204.357 139.502 200.314C139.053 196.271 138.604 192.004 138.154 187.512C137.705 182.87 137.256 178.527 136.807 174.484C136.357 170.292 135.908 166.623 135.459 163.479C135.16 160.184 134.935 157.714 134.785 156.066C134.486 154.569 134.336 152.697 134.336 150.451C134.486 148.205 134.336 145.884 133.887 143.488C133.587 141.092 132.988 138.846 132.09 136.75C131.341 134.654 130.143 133.156 128.496 132.258C123.105 135.253 117.715 137.499 112.324 138.996C106.934 140.493 101.243 141.242 95.2539 141.242C86.4193 141.242 77.5846 135.852 68.75 125.07C68.151 125.07 67.7018 125.52 67.4023 126.418C67.2526 127.316 67.1029 128.365 66.9531 129.562C66.8034 130.76 66.7285 132.033 66.7285 133.381C66.8783 134.729 66.9531 135.852 66.9531 136.75L66.7285 211.77C66.7285 212.668 66.429 213.492 65.8301 214.24C65.3809 214.839 64.7819 215.288 64.0332 215.588C63.2845 215.887 62.4609 216.187 61.5625 216.486C60.8138 216.636 60.0651 216.711 59.3164 216.711C56.9206 216.711 55.2734 215.738 54.375 213.791C53.6263 211.695 53.1022 209.673 52.8027 207.727V175.383C52.8027 165.5 53.1771 155.767 53.9258 146.184C54.8242 136.6 55.2734 126.867 55.2734 116.984C55.2734 113.99 54.6745 111.294 53.4766 108.898C52.2786 106.503 51.0059 104.182 49.6582 101.936C48.3105 99.5397 47.0378 97.2188 45.8398 94.9727C44.7917 92.5768 44.2676 89.9564 44.2676 87.1113C44.2676 83.9668 45.765 82.3945 48.7598 82.3945C52.5033 82.3945 55.6478 83.5176 58.1934 85.7637C60.7389 88.0098 62.985 90.7051 64.9316 93.8496C66.8783 96.9941 68.75 100.513 70.5469 104.406C72.3438 108.299 74.4401 111.818 76.8359 114.963C79.3815 118.107 82.2266 120.803 85.3711 123.049C88.6654 125.295 92.7083 126.418 97.5 126.418C103.49 126.717 108.431 125.819 112.324 123.723C116.367 121.477 119.587 118.706 121.982 115.412C124.528 111.968 126.549 108.299 128.047 104.406C129.694 100.363 131.117 96.6947 132.314 93.4004C133.512 89.9564 134.785 87.1862 136.133 85.0898C137.63 82.9935 139.427 82.1699 141.523 82.6191C143.171 82.3197 144.368 82.694 145.117 83.7422C146.016 84.7904 146.689 86.138 147.139 87.7852C147.588 89.2826 147.812 90.7799 147.812 92.2773C147.962 93.7747 148.037 94.8229 148.037 95.4219C148.037 101.112 147.588 106.577 146.689 111.818C145.941 116.91 145.566 122.375 145.566 128.215C145.566 135.852 146.09 143.413 147.139 150.9C148.187 158.387 149.385 165.949 150.732 173.586C152.23 181.073 153.503 188.56 154.551 196.047C155.749 203.534 156.348 211.021 156.348 218.508C156.348 219.706 156.198 220.679 155.898 221.428C155.599 222.176 155.15 222.701 154.551 223C153.952 223.299 153.278 223.449 152.529 223.449C151.781 223.449 150.957 223.449 150.059 223.449C148.112 223.449 146.315 223.225 144.668 222.775C143.171 222.326 142.122 220.904 141.523 218.508ZM132.764 285.441C132.165 283.345 132.24 281.473 132.988 279.826C133.587 278.179 134.486 276.831 135.684 275.783C136.882 274.735 138.229 274.061 139.727 273.762C141.074 273.462 142.272 273.612 143.32 274.211C144.219 274.96 144.818 276.232 145.117 278.029C145.267 279.826 144.743 282.297 143.545 285.441C143.545 288.736 144.967 291.955 147.812 295.1C150.508 298.244 154.102 301.089 158.594 303.635C162.936 306.18 167.728 308.501 172.969 310.598C178.21 312.694 183.301 314.491 188.242 315.988C193.184 317.486 197.601 318.609 201.494 319.357C205.088 320.106 207.783 320.48 209.58 320.48C213.324 320.48 216.468 319.507 219.014 317.561C221.709 315.614 223.955 313.068 225.752 309.924C227.699 306.779 229.196 303.186 230.244 299.143C231.442 295.249 232.34 291.281 232.939 287.238C233.538 283.345 233.913 279.527 234.062 275.783C234.212 272.04 234.287 268.895 234.287 266.35C234.287 265.152 234.137 262.906 233.838 259.611C233.688 256.467 233.389 252.798 232.939 248.605C232.49 244.413 231.966 240.07 231.367 235.578C230.768 231.086 230.094 226.893 229.346 223C228.597 219.107 227.773 215.962 226.875 213.566C226.126 211.171 225.303 209.973 224.404 209.973C222.907 209.973 221.11 210.422 219.014 211.32C217.067 212.219 214.971 213.192 212.725 214.24C210.628 215.288 208.457 216.262 206.211 217.16C203.965 218.059 201.794 218.508 199.697 218.508C195.505 218.508 191.387 217.609 187.344 215.812C183.301 214.016 179.782 211.695 176.787 208.85C173.942 206.005 171.621 202.635 169.824 198.742C168.027 194.849 167.129 190.806 167.129 186.613C167.129 180.025 168.402 173.286 170.947 166.398C173.643 159.51 177.236 153.221 181.729 147.531C186.37 141.841 191.761 137.199 197.9 133.605C204.189 130.012 210.853 128.215 217.891 128.215C223.281 129.712 227.624 133.156 230.918 138.547C234.362 143.788 236.982 150.301 238.779 158.088C240.726 165.874 242.074 174.559 242.822 184.143C243.721 193.576 244.32 203.234 244.619 213.117C244.919 223 245.143 232.658 245.293 242.092C245.592 251.675 246.191 260.36 247.09 268.146C247.09 271.59 246.865 275.633 246.416 280.275C246.117 285.067 245.518 289.934 244.619 294.875C243.721 299.816 242.448 304.683 240.801 309.475C239.303 314.416 237.282 318.758 234.736 322.502C232.191 326.395 229.046 329.465 225.303 331.711C221.709 334.107 217.516 335.305 212.725 335.305C208.831 335.305 204.115 334.855 198.574 333.957C193.184 333.059 187.493 331.636 181.504 329.689C175.664 327.743 169.824 325.347 163.984 322.502C158.145 319.657 152.904 316.363 148.262 312.619C143.62 309.025 139.876 304.908 137.031 300.266C134.186 295.773 132.764 290.832 132.764 285.441ZM179.932 182.795C179.932 185.49 180.306 188.111 181.055 190.656C181.953 193.052 183.151 195.223 184.648 197.17C186.296 199.117 188.242 200.689 190.488 201.887C192.884 202.935 195.505 203.459 198.35 203.459C205.986 203.459 211.751 201.962 215.645 198.967C219.688 195.972 222.458 192.229 223.955 187.736C225.452 183.244 226.201 178.452 226.201 173.361C226.051 168.12 225.827 163.404 225.527 159.211C225.527 157.115 225.378 155.018 225.078 152.922C224.779 150.826 224.18 148.879 223.281 147.082C222.383 145.285 221.11 143.863 219.463 142.814C217.965 141.766 216.019 141.242 213.623 141.242C208.682 141.242 204.115 142.665 199.922 145.51C195.729 148.205 192.135 151.649 189.141 155.842C186.296 159.885 184.049 164.377 182.402 169.318C180.755 174.11 179.932 178.602 179.932 182.795Z" fill="black"/>
</svg>
